<?xml version="1.0" encoding="utf-8"?>
<!-- Generator: Adobe Illustrator 26.0.1, SVG Export Plug-In . SVG Version: 6.00 Build 0)  -->
<svg version="1.1" id="Capa_1" xmlns="http://www.w3.org/2000/svg" xmlns:xlink="http://www.w3.org/1999/xlink" x="0px" y="0px"
	 viewBox="0 0 500 500" style="enable-background:new 0 0 500 500;" xml:space="preserve">
<style type="text/css">
	.st0{fill:#34353A;}
	.st1{fill:#FFFFFF;}
	.st2{fill:#0F161F;}
	.st3{fill:url(#SVGID_1_);}
	.st4{fill:url(#SVGID_00000090267619913560262090000009146557784070514839_);}
	.st5{fill:url(#SVGID_00000172435302600122425410000007991455617758079413_);}
	.st6{display:none;}
	.st7{display:inline;fill:url(#SVGID_00000061457072659282316420000011233916284345188785_);}
	.st8{display:inline;fill:url(#SVGID_00000075155999479397521910000014130533485752942215_);}
</style>
<g>
	<circle class="st2" cx="250" cy="250" r="250"/>
	<g>
		<path class="st1" d="M407.6,117.9c0-0.1,0-0.3,0-0.4c0-6.6-6.8-12.3-13.3-10.2c-6.9,2.2-13.7,5.2-20.2,8.3
			c-14.9,6.9-29.1,15.2-42.6,24.6c-19.5,13.7-37.6,29.6-53.1,47.8c-10.7,12.5-20.2,25.9-28.4,40.1c-6.6-11.4-14.1-22.4-22.4-32.8
			c-15.3-19.3-33.3-36-53-50.7c-13.9-10.3-28.8-19.4-44.5-27c-7.7-3.8-15.8-7.7-24.1-10.2c-0.1,0-0.2-0.1-0.3-0.1
			c-6.6-2.1-13.3,3.5-13.3,10.2c0,8.8,0,17.6,0,26.4c0,21.1,0,42.3,0,63.4c0,25.5,0,50.9,0,76.4c0,22.1,0,44.2,0,66.3
			c0,10.7-0.3,21.5,0,32.2c0,0.1,0,0.3,0,0.4c0,5.7,4.8,10.5,10.5,10.5c15.2,0,30.5,0,45.7,0c2.2,0,4.4,0,6.6,0
			c5.7,0,10.5-4.8,10.5-10.5c0-6.4,0-12.9,0-19.3c0-15.4,0-30.8,0-46.2c0-18.6,0-37.2,0-55.8c0-16.2,0-32.3,0-48.5
			c0-7.8,0.2-15.7,0-23.5c0-0.1,0-0.2,0-0.3c0-5.5-4.8-10.8-10.5-10.5c-5.7,0.3-10.5,4.6-10.5,10.5c0,6.4,0,12.9,0,19.3
			c0,15.4,0,30.8,0,46.2c0,18.6,0,37.2,0,55.8c0,16.2,0,32.3,0,48.5c0,4.4-0.1,8.9-0.1,13.3c-10.4,0-20.7,0-31.1,0
			c0-5.3,0-10.6,0-15.9c0-21.1,0-42.3,0-63.4c0-25.5,0-50.9,0-76.4c0-22.1,0-44.2,0-66.3c0-5.7,0.1-11.4,0.2-17.1
			c0.6,0.3,1.1,0.5,1.7,0.8c14.7,6.8,28.8,15,42.1,24.3c2,1.4,4,2.9,6,4.3c1.1,0.8,2.1,1.6,3.1,2.4c0.3,0.2,0.5,0.4,0.8,0.6
			c0.2,0.1,0.4,0.3,0.6,0.4c4.3,3.4,8.5,6.9,12.6,10.5c9.1,8,17.6,16.6,25.5,25.8c2.1,2.4,4.2,4.9,6.2,7.4c0.4,0.5,0.9,1.1,1.3,1.6
			c0.3,0.4,0.5,0.8,0.8,1.1c0.9,1.1,1.7,2.3,2.5,3.4c4,5.4,7.8,11,11.3,16.7c3.6,5.9,7,11.9,10.2,18.1c-2,4.3-3.9,8.7-5.7,13.2
			c-13.2,33-19.4,68.5-20.3,104c-0.1,5-0.1,10,0,14.9c0.1,5.7,4.8,10.5,10.5,10.5c4.1,0,8.3,0,12.4,0c9.8,0,19.6,0,29.4,0
			c4.1,0,8.3,0,12.4,0c5.8,0,10.4-4.8,10.5-10.5c0.6-36.6-4.2-73.7-16.3-108.3c-2.9-8.1-6.1-16.1-9.7-23.9c1.6-3.1,3.2-6.2,4.9-9.2
			c3.4-6.1,7.1-12,11-17.8c1.9-2.8,3.8-5.5,5.8-8.2c0.9-1.2,1.8-2.4,2.7-3.6c0.1-0.1,0.2-0.2,0.2-0.3c0.6-0.7,1.2-1.5,1.8-2.2
			c7.7-9.5,16-18.5,24.9-26.9c4.2-3.9,8.5-7.7,12.9-11.4c2.1-1.7,4.2-3.5,6.4-5.2c0.1-0.1,0.2-0.2,0.3-0.2c0.3-0.2,0.6-0.5,0.9-0.7
			c1.1-0.8,2.2-1.7,3.3-2.5c13.8-10.1,28.4-19.1,43.8-26.5c2-1,4-1.9,6-2.8c0,3.6,0,7.3,0,10.9c0,21.1,0,42.3,0,63.4
			c0,25.5,0,50.9,0,76.4c0,22.1,0,44.2,0,66.3c0,7.3-0.2,14.7-0.2,22.1c-10.3,0-20.7,0-31,0c0-2.9,0-5.9,0-8.8c0-15.4,0-30.8,0-46.2
			c0-18.6,0-37.2,0-55.8c0-16.2,0-32.3,0-48.5c0-7.8,0.2-15.7,0-23.5c0-0.1,0-0.2,0-0.3c0-5.5-4.8-10.8-10.5-10.5
			c-5.7,0.3-10.5,4.6-10.5,10.5c0,6.4,0,12.9,0,19.3c0,15.4,0,30.8,0,46.2c0,18.6,0,37.2,0,55.8c0,16.2,0,32.3,0,48.5
			c0,7.8-0.2,15.7,0,23.5c0,0.1,0,0.2,0,0.3c0,5.7,4.8,10.5,10.5,10.5c15.2,0,30.5,0,45.7,0c2.2,0,4.4,0,6.6,0
			c5.7,0,10.5-4.8,10.5-10.5c0-8.8,0-17.6,0-26.4c0-21.1,0-42.3,0-63.4c0-25.5,0-50.9,0-76.4c0-22.1,0-44.2,0-66.3
			C407.6,139.3,407.9,128.6,407.6,117.9z M263.6,331.5c0.1,0.6,0.2,1.2,0.3,1.7c0.1,0.6,0.3,0.9,0.4,1c0.3,1.7,0.3,3.9,0.4,5.4
			c1,9.3,1.6,18.6,1.9,27.9c0,1.5,0.1,2.9,0.1,4.4c-0.6,0-1.3,0-1.9,0c-9.8,0-19.6,0-29.4,0c-0.6,0-1.3,0-1.9,0
			c0.1-6.3,0.3-12.6,0.7-18.8c0.3-4.6,0.7-9.3,1.2-13.9c0.2-2.1,0.5-4.3,0.8-6.4c-0.4,3.2,0.1-0.3,0.2-1.1c0.2-1.3,0.4-2.5,0.6-3.8
			c2.6-16.4,6.6-32.5,12.1-48.1c0.3-0.9,0.7-1.9,1-2.8c4.6,12.6,8.2,25.6,10.9,38.7c0.9,4.3,1.6,8.6,2.3,12.9
			C263.3,329.7,263.5,330.6,263.6,331.5z"/>
		<linearGradient id="SVGID_1_" gradientUnits="userSpaceOnUse" x1="253.0463" y1="265.3155" x2="278.9012" y2="297.8426">
			<stop  offset="1.396648e-02" style="stop-color:#0F161F"/>
			<stop  offset="1" style="stop-color:#0F161F;stop-opacity:0"/>
		</linearGradient>
		<path class="st3" d="M247.1,285.7c0,0,7.4-25.6,24.5-52.9l12.7,32.1l5.6,36.1l-34.2,23.6L247.1,285.7z"/>
	</g>
</g>
</svg>
